<svg xmlns="http://www.w3.org/2000/svg" width="25" height="34" fill="none" viewBox="0 0 25 34"><path fill="#101412" d="M3 31V30H1V29H0V8H1V7H2V6H3V5H4V4H21V5H22V6H23V7H24V8H25V29H24V30H22V31H19V32H20V34H14V32H15V31H10V32H11V34H5V32H6V31H3Z"/><path fill="#4B4862" d="M6 31V29.5H10V31H9V32H10V33H6V32H7V31H6Z"/><path fill="#4B4862" d="M15 31V29.5H19V31H18V32H19V33H15V32H16V31H15Z"/><path fill="#9BADB7" fill-rule="evenodd" d="M1 24.5V29H3V30H22V29H24V24.5H1ZM9 29V27H16V29H9Z" clip-rule="evenodd"/><path fill="#BECAD0" d="M1 25V23H24V25H1Z"/><path fill="#2B3E48" d="M2 27V26H7V27H2Z"/><path fill="#2B3E48" d="M4 29V28H7V29H4Z"/><path fill="#2B3E48" d="M18 27V26H19V27H18Z"/><path fill="#2B3E48" d="M20 27V26H21V27H20Z"/><path fill="#2B3E48" d="M22 27V26H23V27H22Z"/><path fill="#2B3E48" d="M18 29V28H21V29H18Z"/><path fill="#FBF580" d="M22 7V6H21V5H4V6H3V7H2V8H1V10H24V8H23V7H22Z"/><path fill="#AEAA4C" d="M1 24V22H24V24H1Z"/><path fill="#E5E3A1" d="M24 9H1V23H24V9Z"/><path fill="#1F2320" d="M4 12V11H21V12H22V20H21V21H4V20H3V12H4Z"/><rect width="5" height="2" x="10" y="5" fill="#AEAA4C"/><path fill="#DBFF3C" d="M16 13V12H18V16H17L16 13Z"/><path fill="#DBFF3C" d="M11 16H14V17H13V19H16V18H17V19H16V20H9V19H8V18H9V19H12V17H11V16Z"/><path fill="#DBFF3C" d="M9 15V14H6V15H5V14H6V13H9V14H10V15H9Z"/><path fill="#DBFF3C" d="M4 7V6H5V4H6V2H7V1H8V2H9V4H10V6H11V7H4Z"/><path fill="#DBFF3C" d="M21 6V7H14V6H15V4H16V2H17V1H18V2H19V4H20V6H21Z"/><path fill="#92C51B" d="M16 2V0H19V2H20V4H21V5.5H20V4H19V2H18V1H17V2H16V4H15V5.5H14V4H15V2H16Z"/><path fill="#92C51B" d="M6 2V0H9V2H10V4H11V5.5H10V4H9V2H8V1H7V2H6V4H5V5.5H4V4H5V2H6Z"/><rect width="3" height="1" x="11" y="6" fill="#D0CC6A"/><path fill="#76AA1D" d="M16 7V6H17V5H18V6H19V7H16Z"/><path fill="#76AA1D" d="M7 6V5H8V6H9V7H6V6H7Z"/><path fill="#76AA1D" d="M21 7V6H20V5H21V6H22V7H21Z"/><path fill="#76AA1D" d="M4 6V7H3V6H4V5H5V6H4Z"/><path fill="#76AA1D" d="M10 5H11V6H12V7H11V6H10V5Z"/><path fill="#76AA1D" d="M14 5H15V6H14V7H13V6H14V5Z"/><path fill="#92C51B" d="M17 13H16V16H17V13Z"/><path fill="#D0CC6A" d="M2 25V23H1V25H2Z"/><path fill="#D0CC6A" d="M23 25V23H24V25H23Z"/><path fill="#D56161" d="M4 24V23H7V24H4Z"/><path fill="#AC3232" d="M4 25V24H7V25H4Z"/></svg>